PathFileType	4	(X/Y/Z)	E:\Qualisys_Data\Carbon_Farble_Plate\Data\Amateur_Runner\S2\T2\S2T2V12_c3d.trc
DataRate	CameraRate	NumFrames	NumMarkers	Units	OrigDataRate	OrigDataStartFrame	OrigNumFrames
200.000000	200.000000	4	39	mm	200.000000	289	331
Frame#	Time	LSHO			RSHO			LICST			RICST			LASIS			LHEEL			RASIS			LTROC			RTROC			SACR			LTH1			LSK4			LTH2			LTH3			RHM5			LSK2			LTH4			RTH1			LTOE			RTH2			RTH3			RTH4			LLEP			RLEP			LSK1			LSK3			RSK1			LHM5			RSK2			LFT1			RSK3			RSK4			LLME			RLME			RTOE			RHEEL			RFT1			RFT2			LFT2			
		X1	Y1	Z1	X2	Y2	Z2	X3	Y3	Z3	X4	Y4	Z4	X5	Y5	Z5	X6	Y6	Z6	X7	Y7	Z7	X8	Y8	Z8	X9	Y9	Z9	X10	Y10	Z10	X11	Y11	Z11	X12	Y12	Z12	X13	Y13	Z13	X14	Y14	Z14	X15	Y15	Z15	X16	Y16	Z16	X17	Y17	Z17	X18	Y18	Z18	X19	Y19	Z19	X20	Y20	Z20	X21	Y21	Z21	X22	Y22	Z22	X23	Y23	Z23	X24	Y24	Z24	X25	Y25	Z25	X26	Y26	Z26	X27	Y27	Z27	X28	Y28	Z28	X29	Y29	Z29	X30	Y30	Z30	X31	Y31	Z31	X32	Y32	Z32	X33	Y33	Z33	X34	Y34	Z34	X35	Y35	Z35	X36	Y36	Z36	X37	Y37	Z37	X38	Y38	Z38	X39	Y39	Z39	

290	1.445	2267.18701171875	1495.17822265625	-460.2380065917969	2236.278564453125	1486.520629882812	-164.8640594482422	2199.366455078125	1018.417663574219	-438.8227844238281	2222.7900390625	1027.557739257812	-142.0827941894531	2248.139404296875	964.9146728515624	-430.0001525878906	1771.545043945312	225.365478515625	-318.9410095214844	2276.093505859375	976.212158203125	-172.6299896240234	2104.4365234375	912.5938720703124	-424.6488647460938	2152.695068359375	925.13916015625	-115.4512557983398	2119.157470703125	1067.555541992188	-290.65576171875	2156.549560546875	666.7075805664062	-442.4528198242188	1885.3232421875	367.901123046875	-413.9036865234375	2075.651123046875	691.906005859375	-444.1014099121094	2124.956787109375	570.0013427734375	-420.7098999023438	2258.53173828125	134.4049224853516	-140.4329986572266	1938.650024414062	450.9133911132812	-429.1439819335938	2044.341430664062	598.6924438476562	-419.0379638671875	2378.241943359375	722.777099609375	-144.9147033691406	1928.330444335938	47.67527770996094	-333.3642578125	2308.588134765625	692.3777465820312	-128.2001953125	2413.021728515625	629.7769775390625	-166.1708831787109	2339.5107421875	602.0811767578125	-147.9944000244141	2055.677978515625	531.8756713867188	-418.6649475097656	2373.707275390625	566.4708862304688	-154.0508422851562	2005.201538085938	408.7615966796875	-423.8410949707031	1950.96923828125	324.0491333007812	-414.2768859863281	2356.2587890625	445.8526306152344	-151.454345703125	1872.702392578125	64.69646453857422	-389.7276306152344	2288.904541015625	487.9154968261719	-139.1716613769531	1759.43994140625	200.4205932617188	-293.4263000488281	2302.0224609375	359.6742248535156	-157.0140380859375	2236.6044921875	403.54833984375	-147.5436706542969	1825.13671875	188.7473907470703	-382.5402221679688	2171.832275390625	220.1182403564453	-171.9149627685547	2333.636474609375	125.1545944213867	-197.4974670410156	2107.35498046875	228.271240234375	-228.6541595458984	2113.25439453125	193.6170959472656	-258.0313415527344	2096.146728515625	199.82666015625	-205.2559356689453	1747.265625	198.8679046630859	-346.1080322265625
291	1.45	2283.420166015625	1498.575317382812	-459.2118835449219	2251.864013671875	1489.673461914062	-164.5130615234375	2216.67529296875	1022.01513671875	-438.3731079101562	2238.829345703125	1031.314331054688	-141.5919342041016	2265.24560546875	968.3707885742188	-429.6910095214844	1785.096069335938	235.0383911132812	-322.2272338867188	2292.251953125	979.75537109375	-172.1766967773438	2121.16162109375	916.9008178710938	-424.7458190917969	2168.7998046875	928.6898803710938	-115.2649765014648	2135.588134765625	1071.450073242188	-290.4346313476562	2168.989013671875	671.2066040039062	-443.3502502441406	1895.748779296875	374.1087036132812	-415.0065307617188	2088.65380859375	697.7201538085938	-444.4703979492188	2135.99853515625	575.1450805664062	-421.6578063964844	2291.856689453125	131.727783203125	-140.3050079345703	1949.045288085938	456.9712219238281	-429.0604553222656	2056.1005859375	604.7206420898438	-419.3293151855469	2393.30029296875	725.5451049804688	-144.5196990966797	1932.104370117188	46.49826812744141	-334.3885498046875	2323.539794921875	695.5885009765625	-127.9441299438477	2427.8671875	632.53271484375	-165.5840301513672	2354.33447265625	605.1832275390625	-147.9986572265625	2066.310302734375	537.494140625	-418.5867309570312	2388.83544921875	568.6952514648438	-154.3490447998047	2014.940673828125	415.0767822265625	-425.3578491210938	1961.208129882812	330.3731994628906	-416.4034729003906	2375.4248046875	446.8193664550781	-150.5211334228516	1877.225341796875	67.58159637451172	-391.8179016113281	2306.157958984375	486.1270141601562	-138.6551055908203	1771.695434570312	211.4690551757812	-296.1734619140625	2324.79150390625	358.2012023925781	-156.7411499023438	2257.79833984375	399.8606262207031	-147.4630279541016	1835.537353515625	194.3514099121094	-385.1834106445312	2201.179931640625	213.1728820800781	-172.0789489746094	2367.06689453125	126.1554870605469	-197.7717742919922	2136.525390625	218.52685546875	-229.2199401855469	2144.04638671875	184.1390533447266	-258.381591796875	2125.99072265625	189.3019256591797	-204.6088409423828	1759.173461914062	209.2516632080078	-348.7316589355469
292	1.455	2299.577392578125	1501.3212890625	-457.9103088378906	2267.51220703125	1492.69287109375	-163.6424407958984	2233.7568359375	1025.445190429688	-437.8310852050781	2254.939697265625	1034.648071289062	-141.3252258300781	2282.13818359375	971.2723999023438	-427.1798706054688	1799.959350585938	244.5204162597656	-326.1713256835938	2308.29296875	982.828369140625	-171.6409149169922	2137.561767578125	921.3632202148438	-425.2807312011719	2184.783935546875	932.4176025390624	-115.2729949951172	2151.846435546875	1074.754150390625	-290.5361938476562	2181.6904296875	675.25927734375	-444.3033447265625	1906.065673828125	380.0688171386719	-415.4262084960938	2101.45947265625	702.9129638671875	-445.1981506347656	2147.053466796875	579.7835083007812	-422.5146179199219	2324.71435546875	129.1960296630859	-141.1037445068359	1959.561279296875	463.2047424316406	-429.2656860351562	2067.7041015625	610.7372436523438	-419.1863403320312	2408.013916015625	728.1132202148438	-144.08984375	1936.233520507812	45.28471374511719	-335.5869445800781	2338.171142578125	698.2481079101562	-127.772819519043	2442.510009765625	634.7472534179688	-165.2469940185547	2368.584716796875	607.4906005859375	-147.5969085693359	2077.22412109375	543.9552001953125	-419.6513671875	2403.373046875	570.9618530273438	-153.6435089111328	2026.756469726562	420.2327880859375	-425.8536071777344	1971.544555664062	336.0387268066406	-417.7958984375	2394.44873046875	447.7841796875	-149.8097381591797	1882.728393554688	69.63276672363281	-392.443603515625	2323.883544921875	483.99267578125	-138.2140655517578	1784.6552734375	221.8581848144531	-298.9456176757812	2347.66064453125	356.9574279785156	-156.26708984375	2278.6240234375	395.9996032714844	-147.2898406982422	1846.157592773438	200.5688629150391	-387.6089477539062	2230.464599609375	206.3330993652344	-172.3271636962891	2400.660888671875	127.1831130981445	-197.8186187744141	2165.47216796875	209.0641479492188	-229.2897186279297	2174.70361328125	174.815673828125	-258.4678344726562	2156.7470703125	179.0573883056641	-205.4237976074219	1771.675048828125	220.120361328125	-352.4063110351562
293	1.46	2316.370849609375	1504.031616210938	-456.8404235839844	2283.103759765625	1495.662109375	-162.9452514648438	2250.86376953125	1028.65869140625	-437.7931213378906	2270.675048828125	1037.216796875	-141.5773620605469	2300.35791015625	974.1849975585938	-426.4856567382812	1814.038208007812	254.0291137695312	-329.35595703125	2324.4384765625	985.607666015625	-171.4913635253906	2153.900390625	925.4463500976562	-425.0624389648438	2200.4814453125	935.4785766601562	-115.4365844726562	2169.650390625	1077.569458007812	-290.4617919921875	2193.493896484375	679.4698486328125	-444.1230773925781	1917.458984375	386.3170471191406	-416.4808654785156	2114.696044921875	708.402587890625	-445.1954345703125	2158.73974609375	584.1697387695312	-423.3976135253906	2357.33642578125	126.9099349975586	-141.54638671875	1970.978759765625	468.8843078613281	-429.4653930664062	2079.71044921875	616.38037109375	-419.0758972167969	2422.25244140625	729.9727172851562	-143.3661651611328	1940.65869140625	44.95903778076172	-336.9618835449219	2351.855712890625	699.8719482421875	-128.1898803710938	2456.756103515625	636.555908203125	-164.1459655761719	2382.9072265625	609.6475219726562	-147.5906066894531	2088.60107421875	548.669921875	-419.2865600585938	2417.824462890625	572.2462768554688	-153.5448913574219	2036.959594726562	426.1513366699219	-426.4174194335938	1982.219604492188	341.6141357421875	-419.2367248535156	2413.210205078125	448.3398132324219	-149.0447692871094	1887.92919921875	71.86569213867188	-393.5430908203125	2340.97802734375	481.713134765625	-137.8272552490234	1796.971923828125	232.5658264160156	-301.9212341308594	2370.630126953125	355.9184875488281	-155.3696136474609	2299.9189453125	391.5317993164062	-146.9075469970703	1856.838134765625	206.4331359863281	-389.8802795410156	2260.26953125	199.9600677490234	-172.6153259277344	2433.6181640625	129.0615386962891	-199.3505249023438	2195.151611328125	199.7094421386719	-229.0687866210938	2205.93310546875	166.1331329345703	-259.3618774414062	2187.377685546875	169.2940826416016	-205.8802642822266	1784.4794921875	230.07080078125	-355.0039978027344
